<?xml version="1.0" encoding="utf-8"?>
<!-- Generator: Adobe Illustrator 26.0.1, SVG Export Plug-In . SVG Version: 6.00 Build 0)  -->
<svg version="1.1" id="Layer_1" xmlns="http://www.w3.org/2000/svg" xmlns:xlink="http://www.w3.org/1999/xlink" x="0px" y="0px"
	 viewBox="0 0 600 600" style="enable-background:new 0 0 600 600;" xml:space="preserve">
<style type="text/css">
	.st0{fill:none;stroke:#000000;stroke-width:2;stroke-miterlimit:10;}
</style>
<path class="st0" d="M14.5,213.8c0,48.2,0,96.3,0,144.5c30,0.2,60.1,0.4,90.1,0.6c-0.4,39.4,31.7,72,71,72.3
	c39.4,0.3,72.1-32,72.2-71.5c36.5,0,73.1,0,109.6,0c-0.9,40,32.4,72.8,71.5,71.7c38.5-1.1,69.6-34.5,67.5-73.8c31.5,0,63,0,94.5,0.1
	c0.5-47.3,0.9-94.5,1.4-141.8c-47.9-0.7-95.9-1.4-143.8-2.1c-13.2-23.7-26.5-47.5-39.7-71.2c-22-8.9-59.3-20.9-106.9-21.1
	c-48.6-0.2-86.7,12.1-108.8,21.1c-12.1,24-24.2,47.9-36.3,71.9C109.3,214.3,61.9,214.1,14.5,213.8z"/>
</svg>
