<?xml version="1.0" encoding="utf-8"?>
<!-- Generator: Adobe Illustrator 26.0.1, SVG Export Plug-In . SVG Version: 6.00 Build 0)  -->
<svg version="1.1" id="Layer_1" xmlns="http://www.w3.org/2000/svg" xmlns:xlink="http://www.w3.org/1999/xlink" x="0px" y="0px"
	 viewBox="0 0 1366 768" style="enable-background:new 0 0 1366 768;" xml:space="preserve">
<style type="text/css">
	.st0{fill:#F78081;}
</style>
<path class="st0" d="M1126.9,767.9c-3.1-3.1-6.1-6.4-9.5-9.1c-3.6-2.9-6.7-6.3-10.2-9.3c-7.6-6.6-14.6-13.9-22-20.6
	c-8.5-7.8-16.8-15.7-25.2-23.5c-8.2-7.6-16.4-15.2-24.6-22.9c-8.1-7.6-16.4-15-24.4-22.7c-8.1-7.7-16.4-15.3-24.6-22.9
	c-8.3-7.8-16.6-15.6-25-23.3c-8.3-7.5-16.4-15.3-24.6-22.9c-8.4-7.7-16.8-15.4-25.1-23.3c-2.6-2.5-5.4-4.8-8.3-8c1.6,0,2.6,0,3.6,0
	c38,0,76,0,114,0c3.8,0,3.8,0,3.8-3.7c0-4.4-0.1-8.8,0-13.3c0-1.7-0.6-2.5-2.3-2.4c-0.6,0-1.2,0-1.7,0c-44.9,0-89.9,0-134.8,0
	c-3.9,0-3.9,0-3.9,4c0,54.3,0,108.6,0,163c0,3.7,0,3.7-3.8,3.7c-10.9,0-21.7,0-32.6,0c-4.4,0-4.4,0-4.4-4.3c0-65.8,0-131.5,0-197.3
	c0-6.7,0-6.7,6.6-6.7c71.2,0,142.4,0,213.6,0c3.7,0,3.8,0,3.8,3.7c0,29,0,58.1,0,87.1c0,3.8,0,3.8-3.7,3.8c-17.7,0-35.4,0-53.1,0
	c-1,0-2.1,0-3.5,0c1,2.2,2.6,3.3,3.9,4.6c4,3.7,8.1,7.3,12.1,11c9.6,9,19.1,18,28.7,26.9c5,4.6,10,9.2,15,13.8
	c8.6,8.1,17.3,16.2,26,24.3c4.7,4.4,9.5,8.7,14.2,13c9.1,8.5,18.1,17.1,27.3,25.5c7.9,7.2,15.8,14.5,23.6,21.9
	c8.4,8,16.9,15.8,25.4,23.7c2.1,1.9,4.8,3.2,5.7,6.1C1167,767.9,1146.9,767.9,1126.9,767.9z"/>
<path class="st0" d="M1365.9,710.8c-73.6,0-147.2,0-220.8,0c-4.2,0-4.2,0-4.2-4.2c0-66.9,0-133.8-0.1-200.7c0-2.7,0.8-3.4,3.4-3.4
	c73.9,0.1,147.8,0.1,221.6,0.1C1365.9,572,1365.9,641.4,1365.9,710.8z M1253.3,540.2c-22.7,0-45.4,0-68.1-0.1
	c-2.7,0-3.6,0.6-3.6,3.4c0.1,42,0.1,84,0,126c0,3.1,1.1,3.7,3.8,3.7c45.4-0.1,90.8-0.1,136.2,0c2.7,0,3.4-0.8,3.4-3.4
	c-0.1-42.1-0.1-84.2,0-126.3c0-2.9-0.9-3.4-3.6-3.4C1298.7,540.2,1276,540.2,1253.3,540.2z"/>
<path class="st0" d="M763.2,436.6c-1.3-0.1-2-0.8-2.6-1.5c-3.7-4.4-7.8-8.4-11.7-12.6c-7-7.5-13.6-15.3-20.6-22.8
	c-7.6-8-15.5-15.6-22.8-23.9c-5.9-6.8-12.4-13-18.5-19.5c-4.5-4.7-8.7-9.7-13.2-14.4c-6.5-6.9-13.1-13.6-19.4-20.6
	c-3.8-4.3-7.8-8.4-11.7-12.7c-5.3-5.9-10.8-11.6-16.2-17.4c-6.4-6.9-12.6-13.9-19.1-20.6c-5.7-6-11.3-11.9-16.9-18
	c-5.2-5.6-10.4-11.1-15.6-16.8c-5.9-6.4-11.7-12.9-17.6-19.3c-7.8-8.4-15.6-16.9-23.4-25.2c-6.7-7.2-13.3-14.5-19.6-22.1
	c-1.5-1.8-2.5-4.1-3.6-6.2c-7.7-14.1-8.1-29-4.2-44.1c1.6-6,3.9-12.1,7.5-17.3c8.8-13.1,20.5-22.6,35.5-27.8c4.6-1.6,4.5-1.5,4.8-6
	c0.7-9.5,0.5-19,0.1-28.5c-0.3-5.9-0.1-11.9-0.1-17.9c0-7.5,3.5-13.5,9.7-17.3c7.6-4.6,15.6-4.6,23.4,0.5c6.1,3.9,8.5,9.5,8.5,16.5
	c0,15.3,0.1,30.6-0.1,45.9c0,3.3,0.7,5,4.2,6.1c11.3,3.6,21.1,9.7,29.5,18.3c6.4,6.6,10.2,14.4,13.5,22.7
	c3.9,10.2,7.6,20.5,11.6,30.6c2.8,7.1,4.9,14.5,8,21.5c3.2,7.1,5,14.7,8.1,21.8c3.4,7.6,5.3,15.6,8.6,23.1
	c3.1,6.8,4.8,14.2,7.9,20.9c3.3,7.1,5.1,14.7,8.2,21.7c3.1,7.1,5,14.7,8.1,21.8c3.4,7.6,5.3,15.6,8.6,23.1c3.2,7,5,14.5,8.1,21.5
	c3,6.7,4.7,13.8,7.7,20.4c3.3,7.5,5.3,15.4,8.5,22.8c3.5,7.9,5.7,16.2,8.7,24.3c2.7,7.3,5,14.7,8.1,21.8c3.1,7.1,5.3,14.6,7.9,21.9
	C761.8,433.2,763.3,434.4,763.2,436.6z M542,139.4c-0.3,8.1,2.4,14.9,8.1,20.8c9.3,9.6,20.3,13,33.3,9.9c10.6-2.6,19-8.6,23.3-18.7
	c4.8-11.3,2.7-22-5.4-31.3c-3.3-3.8-7.4-6.6-12-8.7c-8.5-3.9-17-3.5-25.6-0.6C551.5,115.1,541.4,125.2,542,139.4z"/>
<path class="st0" d="M709,502.5c36.3,0,72.5,0,108.8-0.1c2.7,0,3.3,0.8,3.3,3.4c-0.1,29.3-0.1,58.6,0,88c0,2.6-0.6,3.4-3.3,3.4
	c-52.1-0.1-104.3-0.1-156.4,0c-2.5,0-3.3-0.6-3.3-3.2c0.1-10.3,0.2-20.6,0-30.9c0-2.9,0.6-3.7,3.6-3.7c38.3,0.1,76.6,0.1,114.9,0.1
	c4,0,4,0,4-3.9c0-4-0.1-8.1,0.1-12.1c0.1-2.6-0.6-3.5-3.3-3.5c-7.5,0.2-15,0.1-22.5,0.1c-38,0-76,0-114-0.1c-2.8,0-3.5,0.7-3.5,3.5
	c0.1,54.4,0.1,108.8,0.1,163.3c0,4.5,0.4,3.9-4.1,3.9c-11.3,0-22.5,0-33.8,0.1c-2.2,0-3-0.6-3-2.9c0.1-67.6,0.1-135.2,0-202.8
	c0-2.7,1.2-2.6,3.2-2.6C636.1,502.5,672.5,502.5,709,502.5z"/>
<polyline class="st0" points="0,768 0,768 0,768 "/>
<rect y="766" class="st0" width="2" height="2"/>
<rect x="1364" class="st0" width="2" height="2"/>
</svg>
