<?xml version="1.0" encoding="utf-8"?>
<!-- Generator: Adobe Illustrator 26.0.1, SVG Export Plug-In . SVG Version: 6.00 Build 0)  -->
<svg version="1.1" id="Layer_1" xmlns="http://www.w3.org/2000/svg" xmlns:xlink="http://www.w3.org/1999/xlink" x="0px" y="0px"
	 viewBox="0 0 1366 768" style="enable-background:new 0 0 1366 768;" xml:space="preserve">
<style type="text/css">
	.st0{display:none;fill:#F78081;}
	.st1{fill:#C1354E;}
	.st2{fill:#F78081;}
</style>
<path class="st0" d="M1126.9,767.9c-3.1-3.1-6.1-6.4-9.5-9.1c-3.6-2.9-6.7-6.3-10.2-9.3c-7.6-6.6-14.6-13.9-22-20.6
	c-8.5-7.8-16.8-15.7-25.2-23.5c-8.2-7.6-16.4-15.2-24.6-22.9c-8.1-7.6-16.4-15-24.4-22.7c-8.1-7.7-16.4-15.3-24.6-22.9
	c-8.3-7.8-16.6-15.6-25-23.3c-8.3-7.5-16.4-15.3-24.6-22.9c-8.4-7.7-16.8-15.4-25.1-23.3c-2.6-2.5-5.4-4.8-8.3-8c1.6,0,2.6,0,3.6,0
	c38,0,76,0,114,0c3.8,0,3.8,0,3.8-3.7c0-4.4-0.1-8.8,0-13.3c0-1.7-0.6-2.5-2.3-2.4c-0.6,0-1.2,0-1.7,0c-44.9,0-89.9,0-134.8,0
	c-3.9,0-3.9,0-3.9,4c0,54.3,0,108.6,0,163c0,3.7,0,3.7-3.8,3.7c-10.9,0-21.7,0-32.6,0c-4.4,0-4.4,0-4.4-4.3c0-65.8,0-131.5,0-197.3
	c0-6.7,0-6.7,6.6-6.7c71.2,0,142.4,0,213.6,0c3.7,0,3.8,0,3.8,3.7c0,29,0,58.1,0,87.1c0,3.8,0,3.8-3.7,3.8c-17.7,0-35.4,0-53.1,0
	c-1,0-2.1,0-3.5,0c1,2.2,2.6,3.3,3.9,4.6c4,3.7,8.1,7.3,12.1,11c9.6,9,19.1,18,28.7,26.9c5,4.6,10,9.2,15,13.8
	c8.6,8.1,17.3,16.2,26,24.3c4.7,4.4,9.5,8.7,14.2,13c9.1,8.5,18.1,17.1,27.3,25.5c7.9,7.2,15.8,14.5,23.6,21.9
	c8.4,8,16.9,15.8,25.4,23.7c2.1,1.9,4.8,3.2,5.7,6.1C1167,767.9,1146.9,767.9,1126.9,767.9z"/>
<path class="st0" d="M1365.9,710.8c-73.6,0-147.2,0-220.8,0c-4.2,0-4.2,0-4.2-4.2c0-66.9,0-133.8-0.1-200.7c0-2.7,0.8-3.4,3.4-3.4
	c73.9,0.1,147.8,0.1,221.6,0.1C1365.9,572,1365.9,641.4,1365.9,710.8z M1253.3,540.2c-22.7,0-45.4,0-68.1-0.1
	c-2.7,0-3.6,0.6-3.6,3.4c0.1,42,0.1,84,0,126c0,3.1,1.1,3.7,3.8,3.7c45.4-0.1,90.8-0.1,136.2,0c2.7,0,3.4-0.8,3.4-3.4
	c-0.1-42.1-0.1-84.2,0-126.3c0-2.9-0.9-3.4-3.6-3.4C1298.7,540.2,1276,540.2,1253.3,540.2z"/>
<path class="st0" d="M0.6,437.9L0.3,438H0C0,315.3,0,192.6,0,69.9c0.5-0.1,0.9-0.1,1.1,0.5C0,71.5,0.5,73,0.5,74.2
	C0.6,195.5,0.6,316.7,0.6,437.9z"/>
<path class="st0" d="M1365.9,437.9h-0.3l-0.3-0.1c0-108,0-216.1,0-324.1c0.2-0.1,0.4-0.1,0.5-0.1
	C1365.9,221.8,1365.9,329.9,1365.9,437.9z"/>
<path class="st1" d="M0.6,437.9c0-121.2,0-242.4,0-363.6c0-1.3-0.5-2.7,0.6-3.8C10,78.6,18.7,86.9,27.7,95
	c8.4,7.6,16.5,15.4,24.8,23c8.3,7.7,16.6,15.3,24.8,23c8.1,7.6,16.3,15.1,24.4,22.6c5.4,5.1,10.9,10.2,16.4,15.2
	c8.4,7.8,16.8,15.6,25.2,23.5c8.2,7.6,16.5,15.1,24.6,22.9c1.1,1.1,2.4,1.9,3.5,2.9c3.7,3.6,3.6,3.6,7.5,0
	c7.3-6.9,14.5-13.9,21.9-20.7c8.5-7.8,16.9-15.5,25.2-23.4c5.1-4.9,10.4-9.6,15.6-14.4c8.5-7.9,17-15.7,25.4-23.7
	c5.1-4.8,10.3-9.4,15.4-14.2c8.5-8,17-16,25.6-23.8c5.3-4.8,10.6-9.7,15.8-14.6c8.3-7.8,16.7-15.4,25.1-23.1
	c0.8,0.3,0.4,1.1,0.4,1.7c0,121.1,0,242.3,0.1,363.4c0,2.2-0.6,2.7-2.7,2.7c-18.9-0.1-37.7-0.1-56.6,0c-2.8,0-3.7-0.5-3.7-3.6
	c0.1-71.1,0.1-142.1,0.1-213.2c0-1.2,0.3-2.5-0.4-3.9c-1.1,0.7-2.1,1.3-3,2c-3.5,3.2-7,6.6-10.5,9.8c-9.4,8.8-18.8,17.7-28.3,26.5
	c-8.3,7.6-16.4,15.2-24.6,22.8c-8.2,7.7-16.6,15.3-24.8,23c-6.1,5.8-12.5,11.3-18.6,17c-1.2,1.1-1.8,1.1-3,0
	c-6.4-6.2-12.9-12.3-19.4-18.3c-8.3-7.6-16.6-15.3-24.8-23s-16.6-15.3-24.8-23c-8.1-7.6-16.3-15-24.4-22.7
	c-5-4.8-10.2-9.3-15.9-14.5c0,1.9,0,3.2,0,4.5c0,71,0,141.9,0.1,212.9c0,3-0.8,3.6-3.7,3.6c-19-0.1-37.9-0.1-56.9-0.1
	C2.5,438,1.6,437.9,0.6,437.9z"/>
<path class="st1" d="M1365.4,113.8c0,108,0,216.1,0,324.1c-12.5,0-25,0.1-37.5,0.1c-7.5,0-15-0.1-22.5,0.1c-2.6,0.1-3.4-0.6-3.4-3.3
	c0.1-29.4,0.1-58.8,0.1-88.3c0-27.4,0-54.8,0.1-82.2c0-2.5-0.5-3.4-3.3-3.4c-72,0.1-143.9,0.1-215.9,0c-2.9,0-3.4,1-3.4,3.6
	c0.1,56.6,0,113.3,0.1,169.9c0,2.8-0.5,3.7-3.5,3.7c-19-0.2-37.9-0.1-56.9,0c-2.6,0-3.2-0.7-3.2-3.2c0.1-56.7,0.1-113.5,0.1-170.2
	c0-3.7,0-3.7-3.7-3.7c-8.5,0-16.9,0-25.4,0c-2,0-2.9-0.3-2.8-2.6c0.1-17.9,0.1-35.8,0-53.6c0-2.3,0.7-2.7,2.8-2.7
	c8.6,0.1,17.1-0.1,25.7,0.1c2.7,0.1,3.5-0.6,3.5-3.4c-0.1-27.2,0-54.4-0.1-81.6c0-2.7,0.6-3.5,3.4-3.5c19,0.1,37.9,0.1,56.9,0
	c2.8,0,3.3,0.9,3.2,3.4c-0.1,27.2,0,54.4-0.1,81.6c0,2.7,0.5,3.6,3.4,3.6c71.9-0.1,143.7-0.1,215.6,0c3,0,3.6-0.9,3.6-3.7
	c-0.1-27.2,0-54.4-0.1-81.6c0-2.7,0.8-3.3,3.4-3.3c19,0.1,38.1,0.1,57.2,0.1C1363.5,113.7,1364.4,113.7,1365.4,113.8z"/>
<path class="st0" d="M763.2,436.6c-1.3-0.1-2-0.8-2.6-1.5c-3.7-4.4-7.8-8.4-11.7-12.6c-7-7.5-13.6-15.3-20.6-22.8
	c-7.6-8-15.5-15.6-22.8-23.9c-5.9-6.8-12.4-13-18.5-19.5c-4.5-4.7-8.7-9.7-13.2-14.4c-6.5-6.9-13.1-13.6-19.4-20.6
	c-3.8-4.3-7.8-8.4-11.7-12.7c-5.3-5.9-10.8-11.6-16.2-17.4c-6.4-6.9-12.6-13.9-19.1-20.6c-5.7-6-11.3-11.9-16.9-18
	c-5.2-5.6-10.4-11.1-15.6-16.8c-5.9-6.4-11.7-12.9-17.6-19.3c-7.8-8.4-15.6-16.9-23.4-25.2c-6.7-7.2-13.3-14.5-19.6-22.1
	c-1.5-1.8-2.5-4.1-3.6-6.2c-7.7-14.1-8.1-29-4.2-44.1c1.6-6,3.9-12.1,7.5-17.3c8.8-13.1,20.5-22.6,35.5-27.8c4.6-1.6,4.5-1.5,4.8-6
	c0.7-9.5,0.5-19,0.1-28.5c-0.3-5.9-0.1-11.9-0.1-17.9c0-7.5,3.5-13.5,9.7-17.3c7.6-4.6,15.6-4.6,23.4,0.5c6.1,3.9,8.5,9.5,8.5,16.5
	c0,15.3,0.1,30.6-0.1,45.9c0,3.3,0.7,5,4.2,6.1c11.3,3.6,21.1,9.7,29.5,18.3c6.4,6.6,10.2,14.4,13.5,22.7
	c3.9,10.2,7.6,20.5,11.6,30.6c2.8,7.1,4.9,14.5,8,21.5c3.2,7.1,5,14.7,8.1,21.8c3.4,7.6,5.3,15.6,8.6,23.1
	c3.1,6.8,4.8,14.2,7.9,20.9c3.3,7.1,5.1,14.7,8.2,21.7c3.1,7.1,5,14.7,8.1,21.8c3.4,7.6,5.3,15.6,8.6,23.1c3.2,7,5,14.5,8.1,21.5
	c3,6.7,4.7,13.8,7.7,20.4c3.3,7.5,5.3,15.4,8.5,22.8c3.5,7.9,5.7,16.2,8.7,24.3c2.7,7.3,5,14.7,8.1,21.8c3.1,7.1,5.3,14.6,7.9,21.9
	C761.8,433.2,763.3,434.4,763.2,436.6z M542,139.4c-0.3,8.1,2.4,14.9,8.1,20.8c9.3,9.6,20.3,13,33.3,9.9c10.6-2.6,19-8.6,23.3-18.7
	c4.8-11.3,2.7-22-5.4-31.3c-3.3-3.8-7.4-6.6-12-8.7c-8.5-3.9-17-3.5-25.6-0.6C551.5,115.1,541.4,125.2,542,139.4z"/>
<path class="st1" d="M889.2,305.3c0,43.2,0,86.3,0.1,129.5c0,2.6-0.7,3.3-3.3,3.3c-18.9-0.1-37.7-0.1-56.6,0c-2.8,0-3.7-0.5-3.7-3.6
	c0.1-86,0.1-172.1,0.1-258.1c0-4.5,0.5-3.9-4-3.9c-29.2,0-58.5,0-87.7,0c-2.4,0-3.3-0.5-3.3-3.1c0.1-17.6,0.1-35.2,0-52.8
	c0-2.5,0.7-3,3.1-3c82.5,0.1,164.9,0.1,247.4,0c2.3,0,3.1,0.4,3.1,2.9c-0.1,17.7-0.1,35.4,0,53.1c0,2.4-0.7,2.9-2.9,2.8
	c-29.5-0.1-59.1,0-88.6-0.1c-3,0-3.6,0.9-3.6,3.7C889.2,219.1,889.2,262.2,889.2,305.3z"/>
<path class="st0" d="M709,502.5c36.3,0,72.5,0,108.8-0.1c2.7,0,3.3,0.8,3.3,3.4c-0.1,29.3-0.1,58.6,0,88c0,2.6-0.6,3.4-3.3,3.4
	c-52.1-0.1-104.3-0.1-156.4,0c-2.5,0-3.3-0.6-3.3-3.2c0.1-10.3,0.2-20.6,0-30.9c0-2.9,0.6-3.7,3.6-3.7c38.3,0.1,76.6,0.1,114.9,0.1
	c4,0,4,0,4-3.9c0-4-0.1-8.1,0.1-12.1c0.1-2.6-0.6-3.5-3.3-3.5c-7.5,0.2-15,0.1-22.5,0.1c-38,0-76,0-114-0.1c-2.8,0-3.5,0.7-3.5,3.5
	c0.1,54.4,0.1,108.8,0.1,163.3c0,4.5,0.4,3.9-4.1,3.9c-11.3,0-22.5,0-33.8,0.1c-2.2,0-3-0.6-3-2.9c0.1-67.6,0.1-135.2,0-202.8
	c0-2.7,1.2-2.6,3.2-2.6C636.1,502.5,672.5,502.5,709,502.5z"/>
<path class="st1" d="M387.1,437.6c0.9-4.6,2.1-8.4,3.8-11.8c2.1-4.4,3.4-9.1,5.2-13.6c4-10.2,7.5-20.7,11.5-30.9
	c2.5-6.5,4.5-13.2,7.2-19.6c3.4-7.8,5.6-16.1,8.9-23.9c6.1-14.7,11.1-29.9,16.5-44.9c2.7-7.4,5-15.1,8.2-22.3
	c3.1-6.9,4.9-14.3,8-21.2c3.2-7,5-14.5,8.1-21.4c3.4-7.4,5.3-15.4,8.6-22.8c3.2-7.2,5-14.9,8.3-22c2.6-5.9,4.4-12,6.7-18
	c0.3-0.7,0.4-1.8,1.1-1.9c1,0,1.6,0.9,1.9,1.8c0.9,2.4,1.7,4.9,2.8,7.3c3,6.7,8.3,11.8,13.2,17.1c4.3,4.7,8.5,9.4,12.7,14.1
	c9,9.9,17.9,19.9,27,29.7c4.6,5,9.3,9.8,13.8,14.9c1.1,1.3,1.2,2.2,0.2,3.5c-4.2,5.2-8.8,10-13.5,14.7c-3.1,3.1-6,6.4-9.1,9.6
	c-4.8,4.9-9.2,10.3-13.9,15.3c-8.3,8.6-16.4,17.4-24.5,26.2c-5.5,6-11.1,11.9-16.6,17.8c-5.6,6-11.2,12-16.8,18
	c-5.3,5.7-10.7,11.4-16,17.2c-5.5,5.9-11.1,11.9-16.6,17.8c-5.4,5.8-10.8,11.6-16.2,17.4c-5.6,5.9-11,12-16.6,17.8
	C396.6,427.9,392.8,433.1,387.1,437.6z"/>
<rect y="766" class="st2" width="2" height="2"/>
<rect x="1364" class="st2" width="2" height="2"/>
</svg>
