<?xml version="1.0" encoding="utf-8"?>
<!-- Generator: Adobe Illustrator 26.0.1, SVG Export Plug-In . SVG Version: 6.00 Build 0)  -->
<svg version="1.1" id="Layer_1" xmlns="http://www.w3.org/2000/svg" xmlns:xlink="http://www.w3.org/1999/xlink" x="0px" y="0px"
	 viewBox="0 0 600 600" style="enable-background:new 0 0 600 600;" xml:space="preserve">
<style type="text/css">
	.st0{fill:none;stroke:#000000;stroke-miterlimit:10;}
</style>
<path class="st0" d="M83,228c-0.2,95.7-0.5,191.4-0.7,287.1c144.3,0.5,288.6,1.1,432.9,1.6c-0.2-96-0.5-192.1-0.7-288.1
	c0.8,19.5,17.1,35.1,36.3,35c19.7,0,36.1-16.3,36.3-36.3c-24.7-35.8-49.3-71.7-74-107.5c-143.8,0-287.7,0-431.5,0
	C58.8,156.3,36,192.8,13.1,229.3c1,18.4,15.4,33,32.2,34.2C64.4,265,82.4,249.1,83,228z"/>
<path class="st0" d="M83,228c0,19.9,16.3,35.8,34.9,35.6c17-0.2,32-13.8,33.9-31.9c2.5,18.5,18.5,32.2,36.7,31.9
	c19-0.4,35-16,35.6-35.6c1.1,20.5,18.6,36,37.7,34.9c17.2-0.9,32-15.2,33.6-33.6c1.9,20.1,19.4,35.2,39,34.2
	c18.9-0.9,34.5-16.3,35.6-35.6c0.3,19.3,16,35.1,34.9,35.6c19.5,0.6,36.3-15.1,37-34.9c0.7,19.4,16.3,34.9,34.9,35.6
	c19.7,0.7,37-15.3,37.7-35.7"/>
<polyline class="st0" points="153.5,515.3 153.5,372.5 225.5,372.5 225.5,515.3 "/>
<path class="st0" d="M296,443.9c48.4,0,96.8,0,145.2,0v-144c-47.9,0.2-95.9,0.5-143.8,0.7C296.9,348.3,296.5,396.1,296,443.9z"/>
<path class="st0" d="M718.2,236.4"/>
</svg>
